<?xml version="1.0" encoding="UTF-8"?>
<!DOCTYPE svg PUBLIC "-//W3C//DTD SVG 1.1//EN" "http://www.w3.org/Graphics/SVG/1.1/DTD/svg11.dtd">
<svg xmlns="http://www.w3.org/2000/svg" version="1.1" width="460px" height="460px" style="shape-rendering:geometricPrecision; text-rendering:geometricPrecision; image-rendering:optimizeQuality; fill-rule:evenodd; clip-rule:evenodd" xmlns:xlink="http://www.w3.org/1999/xlink">
<g><path style="opacity:1" fill="#3347fa" d="M -0.5,-0.5 C 152.833,-0.5 306.167,-0.5 459.5,-0.5C 459.5,152.833 459.5,306.167 459.5,459.5C 306.167,459.5 152.833,459.5 -0.5,459.5C -0.5,306.167 -0.5,152.833 -0.5,-0.5 Z"/></g>
<g><path style="opacity:1" fill="#fc962b" d="M 159.5,140.5 C 137.167,140.5 114.833,140.5 92.5,140.5C 92.5,137.833 92.5,135.167 92.5,132.5C 114.833,132.5 137.167,132.5 159.5,132.5C 159.5,135.167 159.5,137.833 159.5,140.5 Z"/></g>
<g><path style="opacity:1" fill="#fffcfa" d="M 84.5,140.5 C 84.5,143.167 84.5,145.833 84.5,148.5C 87.1667,148.5 89.8333,148.5 92.5,148.5C 92.5,145.833 92.5,143.167 92.5,140.5C 114.833,140.5 137.167,140.5 159.5,140.5C 159.5,143.167 159.5,145.833 159.5,148.5C 162.167,148.5 164.833,148.5 167.5,148.5C 167.5,193.167 167.5,237.833 167.5,282.5C 164.833,282.5 162.167,282.5 159.5,282.5C 159.5,285.167 159.5,287.833 159.5,290.5C 137.167,290.5 114.833,290.5 92.5,290.5C 92.5,287.833 92.5,285.167 92.5,282.5C 89.8333,282.5 87.1667,282.5 84.5,282.5C 84.5,285.167 84.5,287.833 84.5,290.5C 83.5269,288.052 83.1936,285.385 83.5,282.5C 83.5,237.833 83.5,193.167 83.5,148.5C 83.1936,145.615 83.5269,142.948 84.5,140.5 Z"/></g>
<g><path style="opacity:1" fill="#fc962b" d="M 84.5,140.5 C 87.1667,140.5 89.8333,140.5 92.5,140.5C 92.5,143.167 92.5,145.833 92.5,148.5C 89.8333,148.5 87.1667,148.5 84.5,148.5C 84.5,145.833 84.5,143.167 84.5,140.5 Z"/></g>
<g><path style="opacity:1" fill="#fc962b" d="M 159.5,140.5 C 162.167,140.5 164.833,140.5 167.5,140.5C 167.5,143.167 167.5,145.833 167.5,148.5C 167.5,145.833 167.5,143.167 167.5,140.5C 164.833,140.5 162.167,140.5 159.5,140.5 Z"/></g>
<g><path style="opacity:1" fill="#fc962b" d="M 83.5,148.5 C 83.5,193.167 83.5,237.833 83.5,282.5C 81.1667,282.5 78.8333,282.5 76.5,282.5C 76.5,237.833 76.5,193.167 76.5,148.5C 78.8333,148.5 81.1667,148.5 83.5,148.5 Z"/></g>
<g><path style="opacity:1" fill="#fc962b" d="M 167.5,148.5 C 170.167,148.5 172.833,148.5 175.5,148.5C 175.5,193.167 175.5,237.833 175.5,282.5C 172.833,282.5 170.167,282.5 167.5,282.5C 167.5,237.833 167.5,193.167 167.5,148.5 Z"/></g>
<g><path style="opacity:1" fill="#fff7a3" d="M 159.5,157.5 C 140.167,157.5 120.833,157.5 101.5,157.5C 101.5,160.167 101.5,162.833 101.5,165.5C 101.167,165.5 100.833,165.5 100.5,165.5C 100.5,162.5 100.5,159.5 100.5,156.5C 120.34,156.17 140.007,156.503 159.5,157.5 Z"/></g>
<g><path style="opacity:1" fill="#fdef46" d="M 159.5,157.5 C 159.5,160.167 159.5,162.833 159.5,165.5C 140.167,165.5 120.833,165.5 101.5,165.5C 101.5,162.833 101.5,160.167 101.5,157.5C 120.833,157.5 140.167,157.5 159.5,157.5 Z"/></g>
<g><path style="opacity:1" fill="#fdef46" d="M 100.5,165.5 C 100.5,168.167 100.5,170.833 100.5,173.5C 97.8333,173.5 95.1667,173.5 92.5,173.5C 92.5,170.833 92.5,168.167 92.5,165.5C 95.1667,165.5 97.8333,165.5 100.5,165.5 Z"/></g>
<g><path style="opacity:1" fill="#fc962b" d="M 101.5,165.5 C 120.833,165.5 140.167,165.5 159.5,165.5C 159.5,168.167 159.5,170.833 159.5,173.5C 140.167,173.5 120.833,173.5 101.5,173.5C 101.5,170.833 101.5,168.167 101.5,165.5 Z"/></g>
<g><path style="opacity:1" fill="#95a0fc" d="M 258.5,175.5 C 264.979,174.509 271.646,174.176 278.5,174.5C 278.5,176.167 278.5,177.833 278.5,179.5C 275.833,179.5 273.167,179.5 270.5,179.5C 272.607,178.532 274.941,178.198 277.5,178.5C 277.5,177.5 277.5,176.5 277.5,175.5C 271.167,175.5 264.833,175.5 258.5,175.5 Z"/></g>
<g><path style="opacity:1" fill="#97a2fc" d="M 219.5,175.5 C 214.5,175.5 209.5,175.5 204.5,175.5C 204.5,176.5 204.5,177.5 204.5,178.5C 209.5,178.5 214.5,178.5 219.5,178.5C 221.099,178.232 222.432,178.566 223.5,179.5C 222.167,179.5 220.833,179.5 219.5,179.5C 214.5,179.5 209.5,179.5 204.5,179.5C 204.5,184.5 204.5,189.5 204.5,194.5C 204.5,195.833 204.5,197.167 204.5,198.5C 203.566,197.432 203.232,196.099 203.5,194.5C 203.5,189.5 203.5,184.5 203.5,179.5C 202.5,179.5 201.5,179.5 200.5,179.5C 200.5,184.5 200.5,189.5 200.5,194.5C 199.512,189.36 199.179,184.026 199.5,178.5C 200.833,178.5 202.167,178.5 203.5,178.5C 203.5,177.167 203.5,175.833 203.5,174.5C 209.026,174.179 214.36,174.512 219.5,175.5 Z"/></g>
<g><path style="opacity:1" fill="#fefffe" d="M 219.5,175.5 C 219.5,176.5 219.5,177.5 219.5,178.5C 214.5,178.5 209.5,178.5 204.5,178.5C 204.5,177.5 204.5,176.5 204.5,175.5C 209.5,175.5 214.5,175.5 219.5,175.5 Z"/></g>
<g><path style="opacity:1" fill="#f1f1ff" d="M 231.5,178.5 C 232.209,179.404 233.209,179.737 234.5,179.5C 234.5,180.5 234.5,181.5 234.5,182.5C 233.5,182.5 232.5,182.5 231.5,182.5C 231.5,187.833 231.5,193.167 231.5,198.5C 230.167,198.5 228.833,198.5 227.5,198.5C 227.5,190.833 227.5,183.167 227.5,175.5C 228.5,175.5 229.5,175.5 230.5,175.5C 230.263,176.791 230.596,177.791 231.5,178.5 Z"/></g>
<g><path style="opacity:1" fill="#95a0fc" d="M 246.5,175.5 C 245.5,175.5 244.5,175.5 243.5,175.5C 243.821,180.695 243.487,185.695 242.5,190.5C 242.5,185.167 242.5,179.833 242.5,174.5C 244.099,174.232 245.432,174.566 246.5,175.5 Z"/></g>
<g><path style="opacity:1" fill="#f3f3ff" d="M 246.5,175.5 C 246.5,183.167 246.5,190.833 246.5,198.5C 245.167,198.5 243.833,198.5 242.5,198.5C 242.5,197.167 242.5,195.833 242.5,194.5C 241.167,194.5 239.833,194.5 238.5,194.5C 238.5,193.167 238.5,191.833 238.5,190.5C 237.5,190.5 236.5,190.5 235.5,190.5C 235.5,187.833 235.5,185.167 235.5,182.5C 236.833,182.5 238.167,182.5 239.5,182.5C 239.5,185.167 239.5,187.833 239.5,190.5C 240.5,190.5 241.5,190.5 242.5,190.5C 243.487,185.695 243.821,180.695 243.5,175.5C 244.5,175.5 245.5,175.5 246.5,175.5 Z"/></g>
<g><path style="opacity:1" fill="#eeeeff" d="M 258.5,175.5 C 264.833,175.5 271.167,175.5 277.5,175.5C 277.5,176.5 277.5,177.5 277.5,178.5C 274.941,178.198 272.607,178.532 270.5,179.5C 270.5,185.833 270.5,192.167 270.5,198.5C 269.167,198.5 267.833,198.5 266.5,198.5C 266.5,192.167 266.5,185.833 266.5,179.5C 263.833,179.5 261.167,179.5 258.5,179.5C 258.5,178.167 258.5,176.833 258.5,175.5 Z"/></g>
<g><path style="opacity:1" fill="#ecebff" d="M 297.5,178.5 C 293.5,178.5 289.5,178.5 285.5,178.5C 285.5,177.167 285.5,175.833 285.5,174.5C 289.5,174.5 293.5,174.5 297.5,174.5C 297.5,175.833 297.5,177.167 297.5,178.5 Z"/></g>
<g><path style="opacity:1" fill="#96a1fc" d="M 320.5,186.5 C 320.5,184.167 320.5,181.833 320.5,179.5C 319.5,179.5 318.5,179.5 317.5,179.5C 317.5,181.833 317.5,184.167 317.5,186.5C 317.768,188.099 317.434,189.432 316.5,190.5C 316.5,189.167 316.5,187.833 316.5,186.5C 316.5,184.167 316.5,181.833 316.5,179.5C 314.167,179.5 311.833,179.5 309.5,179.5C 309.5,181.833 309.5,184.167 309.5,186.5C 308.532,184.393 308.198,182.059 308.5,179.5C 307.5,179.5 306.5,179.5 305.5,179.5C 306.209,178.596 307.209,178.263 308.5,178.5C 308.5,177.167 308.5,175.833 308.5,174.5C 311.5,174.5 314.5,174.5 317.5,174.5C 317.5,175.833 317.5,177.167 317.5,178.5C 318.833,178.5 320.167,178.5 321.5,178.5C 321.806,181.385 321.473,184.052 320.5,186.5 Z"/></g>
<g><path style="opacity:1" fill="#fefffe" d="M 309.5,175.5 C 311.833,175.5 314.167,175.5 316.5,175.5C 316.5,176.5 316.5,177.5 316.5,178.5C 314.167,178.5 311.833,178.5 309.5,178.5C 309.5,177.5 309.5,176.5 309.5,175.5 Z"/></g>
<g><path style="opacity:1" fill="#ecebff" d="M 340.5,178.5 C 337.833,178.5 335.167,178.5 332.5,178.5C 332.5,177.167 332.5,175.833 332.5,174.5C 335.167,174.5 337.833,174.5 340.5,174.5C 340.5,175.833 340.5,177.167 340.5,178.5 Z"/></g>
<g><path style="opacity:1" fill="#96a0fc" d="M 328.5,179.5 C 329.568,178.566 330.901,178.232 332.5,178.5C 335.167,178.5 337.833,178.5 340.5,178.5C 341.833,178.5 343.167,178.5 344.5,178.5C 344.5,179.833 344.5,181.167 344.5,182.5C 344.5,183.833 344.5,185.167 344.5,186.5C 343.566,185.432 343.232,184.099 343.5,182.5C 343.5,181.5 343.5,180.5 343.5,179.5C 342.5,179.5 341.5,179.5 340.5,179.5C 337.833,179.5 335.167,179.5 332.5,179.5C 331.167,179.5 329.833,179.5 328.5,179.5 Z"/></g>
<g><path style="opacity:1" fill="#fefffe" d="M 203.5,194.5 C 202.5,194.5 201.5,194.5 200.5,194.5C 200.5,189.5 200.5,184.5 200.5,179.5C 201.5,179.5 202.5,179.5 203.5,179.5C 203.5,184.5 203.5,189.5 203.5,194.5 Z"/></g>
<g><path style="opacity:1" fill="#3246fb" d="M 219.5,179.5 C 219.5,184.5 219.5,189.5 219.5,194.5C 214.5,194.5 209.5,194.5 204.5,194.5C 204.5,189.5 204.5,184.5 204.5,179.5C 209.5,179.5 214.5,179.5 219.5,179.5 Z"/></g>
<g><path style="opacity:1" fill="#fefffe" d="M 219.5,179.5 C 220.833,179.5 222.167,179.5 223.5,179.5C 223.5,184.5 223.5,189.5 223.5,194.5C 222.167,194.5 220.833,194.5 219.5,194.5C 219.5,189.5 219.5,184.5 219.5,179.5 Z"/></g>
<g><path style="opacity:1" fill="#959ffc" d="M 231.5,178.5 C 232.833,178.5 234.167,178.5 235.5,178.5C 235.5,179.833 235.5,181.167 235.5,182.5C 235.5,185.167 235.5,187.833 235.5,190.5C 234.527,188.052 234.194,185.385 234.5,182.5C 234.5,181.5 234.5,180.5 234.5,179.5C 233.209,179.737 232.209,179.404 231.5,178.5 Z"/></g>
<g><path style="opacity:1" fill="#96a1fc" d="M 285.5,178.5 C 289.5,178.5 293.5,178.5 297.5,178.5C 299.099,178.232 300.432,178.566 301.5,179.5C 300.167,179.5 298.833,179.5 297.5,179.5C 293.5,179.5 289.5,179.5 285.5,179.5C 284.5,179.5 283.5,179.5 282.5,179.5C 282.5,184.5 282.5,189.5 282.5,194.5C 281.512,189.36 281.179,184.026 281.5,178.5C 282.833,178.5 284.167,178.5 285.5,178.5 Z"/></g>
<g><path style="opacity:1" fill="#fefffe" d="M 285.5,179.5 C 285.5,184.5 285.5,189.5 285.5,194.5C 284.5,194.5 283.5,194.5 282.5,194.5C 282.5,189.5 282.5,184.5 282.5,179.5C 283.5,179.5 284.5,179.5 285.5,179.5 Z"/></g>
<g><path style="opacity:1" fill="#3246fb" d="M 285.5,179.5 C 289.5,179.5 293.5,179.5 297.5,179.5C 297.5,184.5 297.5,189.5 297.5,194.5C 293.5,194.5 289.5,194.5 285.5,194.5C 285.5,189.5 285.5,184.5 285.5,179.5 Z"/></g>
<g><path style="opacity:1" fill="#fefffe" d="M 297.5,179.5 C 298.833,179.5 300.167,179.5 301.5,179.5C 301.5,184.5 301.5,189.5 301.5,194.5C 300.167,194.5 298.833,194.5 297.5,194.5C 297.5,189.5 297.5,184.5 297.5,179.5 Z"/></g>
<g><path style="opacity:1" fill="#f7f7ff" d="M 305.5,179.5 C 306.5,179.5 307.5,179.5 308.5,179.5C 308.198,182.059 308.532,184.393 309.5,186.5C 311.833,186.5 314.167,186.5 316.5,186.5C 316.5,187.833 316.5,189.167 316.5,190.5C 314.167,190.5 311.833,190.5 309.5,190.5C 309.5,193.167 309.5,195.833 309.5,198.5C 308.167,198.5 306.833,198.5 305.5,198.5C 305.5,192.167 305.5,185.833 305.5,179.5 Z"/></g>
<g><path style="opacity:1" fill="#3246fb" d="M 316.5,186.5 C 314.167,186.5 311.833,186.5 309.5,186.5C 309.5,184.167 309.5,181.833 309.5,179.5C 311.833,179.5 314.167,179.5 316.5,179.5C 316.5,181.833 316.5,184.167 316.5,186.5 Z"/></g>
<g><path style="opacity:1" fill="#fefffe" d="M 320.5,186.5 C 319.5,186.5 318.5,186.5 317.5,186.5C 317.5,184.167 317.5,181.833 317.5,179.5C 318.5,179.5 319.5,179.5 320.5,179.5C 320.5,181.833 320.5,184.167 320.5,186.5 Z"/></g>
<g><path style="opacity:1" fill="#fefffe" d="M 328.5,179.5 C 329.833,179.5 331.167,179.5 332.5,179.5C 332.5,180.5 332.5,181.5 332.5,182.5C 331.167,182.5 329.833,182.5 328.5,182.5C 328.5,181.5 328.5,180.5 328.5,179.5 Z"/></g>
<g><path style="opacity:1" fill="#fefffe" d="M 340.5,179.5 C 341.5,179.5 342.5,179.5 343.5,179.5C 343.5,180.5 343.5,181.5 343.5,182.5C 342.5,182.5 341.5,182.5 340.5,182.5C 340.5,181.5 340.5,180.5 340.5,179.5 Z"/></g>
<g><path style="opacity:1" fill="#929dfc" d="M 359.5,182.5 C 359.5,181.5 359.5,180.5 359.5,179.5C 358.5,179.5 357.5,179.5 356.5,179.5C 356.5,180.5 356.5,181.5 356.5,182.5C 356.768,184.099 356.434,185.432 355.5,186.5C 355.5,185.167 355.5,183.833 355.5,182.5C 355.5,181.167 355.5,179.833 355.5,178.5C 357.167,178.5 358.833,178.5 360.5,178.5C 360.768,180.099 360.434,181.432 359.5,182.5 Z"/></g>
<g><path style="opacity:1" fill="#fefffe" d="M 359.5,182.5 C 358.5,182.5 357.5,182.5 356.5,182.5C 356.5,181.5 356.5,180.5 356.5,179.5C 357.5,179.5 358.5,179.5 359.5,179.5C 359.5,180.5 359.5,181.5 359.5,182.5 Z"/></g>
<g><path style="opacity:1" fill="#fefffe" d="M 344.5,182.5 C 348.167,182.5 351.833,182.5 355.5,182.5C 355.5,183.833 355.5,185.167 355.5,186.5C 351.833,186.5 348.167,186.5 344.5,186.5C 344.5,185.167 344.5,183.833 344.5,182.5 Z"/></g>
<g><path style="opacity:1" fill="#fefffe" d="M 204.5,194.5 C 209.5,194.5 214.5,194.5 219.5,194.5C 219.5,195.833 219.5,197.167 219.5,198.5C 214.5,198.5 209.5,198.5 204.5,198.5C 204.5,197.167 204.5,195.833 204.5,194.5 Z"/></g>
<g><path style="opacity:1" fill="#fefffe" d="M 285.5,194.5 C 289.5,194.5 293.5,194.5 297.5,194.5C 297.5,195.833 297.5,197.167 297.5,198.5C 293.5,198.5 289.5,198.5 285.5,198.5C 285.5,197.167 285.5,195.833 285.5,194.5 Z"/></g>
<g><path style="opacity:1" fill="#fdef46" d="M 101.5,207.5 C 117.833,207.5 134.167,207.5 150.5,207.5C 150.5,210.167 150.5,212.833 150.5,215.5C 134.167,215.5 117.833,215.5 101.5,215.5C 101.5,212.833 101.5,210.167 101.5,207.5 Z"/></g>
<g><path style="opacity:1" fill="#fc962b" d="M 201.5,207.5 C 262.5,207.5 323.5,207.5 384.5,207.5C 384.5,210.167 384.5,212.833 384.5,215.5C 323.5,215.5 262.5,215.5 201.5,215.5C 201.5,212.833 201.5,210.167 201.5,207.5 Z"/></g>
<g><path style="opacity:1" fill="#fdef46" d="M 92.5,215.5 C 95.1667,215.5 97.8333,215.5 100.5,215.5C 100.5,218.167 100.5,220.833 100.5,223.5C 97.8333,223.5 95.1667,223.5 92.5,223.5C 92.5,220.833 92.5,218.167 92.5,215.5 Z"/></g>
<g><path style="opacity:1" fill="#fc962b" d="M 200.5,215.5 C 200.5,218.167 200.5,220.833 200.5,223.5C 197.833,223.5 195.167,223.5 192.5,223.5C 192.5,220.833 192.5,218.167 192.5,215.5C 195.167,215.5 197.833,215.5 200.5,215.5 Z"/></g>
<g><path style="opacity:1" fill="#fefdfc" d="M 384.5,207.5 C 385.473,209.948 385.806,212.615 385.5,215.5C 385.5,218.167 385.5,220.833 385.5,223.5C 388.167,223.5 390.833,223.5 393.5,223.5C 396.385,223.194 399.052,223.527 401.5,224.5C 398.833,224.5 396.167,224.5 393.5,224.5C 393.5,243.833 393.5,263.167 393.5,282.5C 390.833,282.5 388.167,282.5 385.5,282.5C 385.5,285.167 385.5,287.833 385.5,290.5C 385.806,293.385 385.473,296.052 384.5,298.5C 384.5,295.833 384.5,293.167 384.5,290.5C 323.5,290.5 262.5,290.5 201.5,290.5C 201.5,293.167 201.5,295.833 201.5,298.5C 200.527,296.052 200.194,293.385 200.5,290.5C 200.5,287.833 200.5,285.167 200.5,282.5C 197.833,282.5 195.167,282.5 192.5,282.5C 192.5,263.167 192.5,243.833 192.5,224.5C 195.167,224.5 197.833,224.5 200.5,224.5C 200.172,235.679 200.505,246.679 201.5,257.5C 204.167,257.5 206.833,257.5 209.5,257.5C 209.5,262.833 209.5,268.167 209.5,273.5C 212.167,273.5 214.833,273.5 217.5,273.5C 217.5,274.167 217.833,274.5 218.5,274.5C 218.5,277.167 218.5,279.833 218.5,282.5C 220.833,282.5 223.167,282.5 225.5,282.5C 225.5,279.833 225.5,277.167 225.5,274.5C 226.167,274.5 226.5,274.167 226.5,273.5C 229.167,273.5 231.833,273.5 234.5,273.5C 234.5,268.167 234.5,262.833 234.5,257.5C 237.167,257.5 239.833,257.5 242.5,257.5C 243.495,246.346 243.828,235.012 243.5,223.5C 240.287,223.19 237.287,223.523 234.5,224.5C 234.5,227.167 234.5,229.833 234.5,232.5C 234.5,237.833 234.5,243.167 234.5,248.5C 231.5,248.5 228.5,248.5 225.5,248.5C 225.5,254.167 225.5,259.833 225.5,265.5C 223.167,265.5 220.833,265.5 218.5,265.5C 218.5,259.833 218.5,254.167 218.5,248.5C 215.5,248.5 212.5,248.5 209.5,248.5C 209.5,243.167 209.5,237.833 209.5,232.5C 209.5,229.833 209.5,227.167 209.5,224.5C 207.052,223.527 204.385,223.194 201.5,223.5C 201.5,220.833 201.5,218.167 201.5,215.5C 262.5,215.5 323.5,215.5 384.5,215.5C 384.5,212.833 384.5,210.167 384.5,207.5 Z"/></g>
<g><path style="opacity:1" fill="#fc962b" d="M 385.5,215.5 C 388.167,215.5 390.833,215.5 393.5,215.5C 393.5,218.167 393.5,220.833 393.5,223.5C 393.5,220.833 393.5,218.167 393.5,215.5C 390.833,215.5 388.167,215.5 385.5,215.5 Z"/></g>
<g><path style="opacity:1" fill="#eac39b" d="M 201.5,207.5 C 201.5,210.167 201.5,212.833 201.5,215.5C 201.5,218.167 201.5,220.833 201.5,223.5C 204.385,223.194 207.052,223.527 209.5,224.5C 206.833,224.5 204.167,224.5 201.5,224.5C 201.5,227.167 201.5,229.833 201.5,232.5C 201.5,240.833 201.5,249.167 201.5,257.5C 200.505,246.679 200.172,235.679 200.5,224.5C 197.833,224.5 195.167,224.5 192.5,224.5C 189.833,224.5 187.167,224.5 184.5,224.5C 186.948,223.527 189.615,223.194 192.5,223.5C 195.167,223.5 197.833,223.5 200.5,223.5C 200.5,220.833 200.5,218.167 200.5,215.5C 200.194,212.615 200.527,209.948 201.5,207.5 Z"/></g>
<g><path style="opacity:1" fill="#fca744" d="M 100.5,165.5 C 100.833,165.5 101.167,165.5 101.5,165.5C 101.5,168.167 101.5,170.833 101.5,173.5C 120.833,173.5 140.167,173.5 159.5,173.5C 140.007,174.497 120.34,174.83 100.5,174.5C 100.172,185.679 100.505,196.679 101.5,207.5C 101.5,210.167 101.5,212.833 101.5,215.5C 117.833,215.5 134.167,215.5 150.5,215.5C 150.5,218.167 150.5,220.833 150.5,223.5C 134.163,223.333 117.83,223.5 101.5,224C 100.171,235.265 100.171,246.431 101.5,257.5C 101.5,260.167 101.5,262.833 101.5,265.5C 98.5,265.5 95.5,265.5 92.5,265.5C 92.5,251.5 92.5,237.5 92.5,223.5C 95.1667,223.5 97.8333,223.5 100.5,223.5C 100.5,220.833 100.5,218.167 100.5,215.5C 97.8333,215.5 95.1667,215.5 92.5,215.5C 92.5,201.5 92.5,187.5 92.5,173.5C 95.1667,173.5 97.8333,173.5 100.5,173.5C 100.5,170.833 100.5,168.167 100.5,165.5 Z"/></g>
<g><path style="opacity:1" fill="#fc962b" d="M 184.5,224.5 C 187.167,224.5 189.833,224.5 192.5,224.5C 192.5,243.833 192.5,263.167 192.5,282.5C 189.833,282.5 187.167,282.5 184.5,282.5C 184.5,263.167 184.5,243.833 184.5,224.5 Z"/></g>
<g><path style="opacity:1" fill="#fdef46" d="M 209.5,224.5 C 209.5,227.167 209.5,229.833 209.5,232.5C 206.833,232.5 204.167,232.5 201.5,232.5C 201.5,229.833 201.5,227.167 201.5,224.5C 204.167,224.5 206.833,224.5 209.5,224.5 Z"/></g>
<g><path style="opacity:1" fill="#fdef46" d="M 234.5,224.5 C 237.167,224.5 239.833,224.5 242.5,224.5C 242.5,227.167 242.5,229.833 242.5,232.5C 239.833,232.5 237.167,232.5 234.5,232.5C 234.5,229.833 234.5,227.167 234.5,224.5 Z"/></g>
<g><path style="opacity:1" fill="#fdef46" d="M 284.5,224.5 C 287.167,224.5 289.833,224.5 292.5,224.5C 292.5,227.167 292.5,229.833 292.5,232.5C 289.833,232.5 287.167,232.5 284.5,232.5C 284.5,229.833 284.5,227.167 284.5,224.5 Z"/></g>
<g><path style="opacity:1" fill="#feef52" d="M 334.5,232.5 C 326.167,232.5 317.833,232.5 309.5,232.5C 309.5,229.5 309.5,226.5 309.5,223.5C 317.833,223.5 326.167,223.5 334.5,223.5C 334.5,226.5 334.5,229.5 334.5,232.5 Z"/></g>
<g><path style="opacity:1" fill="#fef056" d="M 376.5,232.5 C 370.833,232.5 365.167,232.5 359.5,232.5C 359.5,229.5 359.5,226.5 359.5,223.5C 365.167,223.5 370.833,223.5 376.5,223.5C 376.5,226.5 376.5,229.5 376.5,232.5 Z"/></g>
<g><path style="opacity:1" fill="#fc962b" d="M 401.5,224.5 C 401.5,243.833 401.5,263.167 401.5,282.5C 398.833,282.5 396.167,282.5 393.5,282.5C 393.5,263.167 393.5,243.833 393.5,224.5C 396.167,224.5 398.833,224.5 401.5,224.5 Z"/></g>
<g><path style="opacity:1" fill="#fba43f" d="M 201.5,232.5 C 204.167,232.5 206.833,232.5 209.5,232.5C 209.5,237.833 209.5,243.167 209.5,248.5C 209.5,248.833 209.5,249.167 209.5,249.5C 209.5,252.167 209.5,254.833 209.5,257.5C 206.833,257.5 204.167,257.5 201.5,257.5C 201.5,249.167 201.5,240.833 201.5,232.5 Z"/></g>
<g><path style="opacity:1" fill="#fba43f" d="M 234.5,232.5 C 237.167,232.5 239.833,232.5 242.5,232.5C 242.5,240.833 242.5,249.167 242.5,257.5C 239.833,257.5 237.167,257.5 234.5,257.5C 234.5,254.833 234.5,252.167 234.5,249.5C 234.5,249.167 234.5,248.833 234.5,248.5C 234.5,243.167 234.5,237.833 234.5,232.5 Z"/></g>
<g><path style="opacity:1" fill="#fddca0" d="M 234.5,224.5 C 237.287,223.523 240.287,223.19 243.5,223.5C 243.828,235.012 243.495,246.346 242.5,257.5C 242.5,249.167 242.5,240.833 242.5,232.5C 242.5,229.833 242.5,227.167 242.5,224.5C 239.833,224.5 237.167,224.5 234.5,224.5 Z"/></g>
<g><path style="opacity:1" fill="#fddba0" d="M 268.5,240.5 C 267.527,238.052 267.194,235.385 267.5,232.5C 267.5,229.833 267.5,227.167 267.5,224.5C 262.167,224.5 256.833,224.5 251.5,224.5C 251.5,227.167 251.5,229.833 251.5,232.5C 251.5,249.167 251.5,265.833 251.5,282.5C 250.503,263.007 250.17,243.34 250.5,223.5C 256.5,223.5 262.5,223.5 268.5,223.5C 268.5,229.167 268.5,234.833 268.5,240.5 Z"/></g>
<g><path style="opacity:1" fill="#fdef46" d="M 267.5,232.5 C 262.167,232.5 256.833,232.5 251.5,232.5C 251.5,229.833 251.5,227.167 251.5,224.5C 256.833,224.5 262.167,224.5 267.5,224.5C 267.5,227.167 267.5,229.833 267.5,232.5 Z"/></g>
<g><path style="opacity:1" fill="#fca440" d="M 251.5,232.5 C 256.833,232.5 262.167,232.5 267.5,232.5C 267.194,235.385 267.527,238.052 268.5,240.5C 268.5,243.167 268.5,245.833 268.5,248.5C 271.167,248.5 273.833,248.5 276.5,248.5C 276.5,251.5 276.5,254.5 276.5,257.5C 276.5,260.167 276.5,262.833 276.5,265.5C 273.833,265.5 271.167,265.5 268.5,265.5C 268.666,260.156 268.499,254.823 268,249.5C 265.281,248.556 262.448,248.223 259.5,248.5C 259.5,259.833 259.5,271.167 259.5,282.5C 256.833,282.5 254.167,282.5 251.5,282.5C 251.5,265.833 251.5,249.167 251.5,232.5 Z"/></g>
<g><path style="opacity:1" fill="#fba43f" d="M 284.5,232.5 C 287.167,232.5 289.833,232.5 292.5,232.5C 292.5,249.167 292.5,265.833 292.5,282.5C 287.167,282.5 281.833,282.5 276.5,282.5C 276.5,276.833 276.5,271.167 276.5,265.5C 279.167,265.5 281.833,265.5 284.5,265.5C 284.5,262.833 284.5,260.167 284.5,257.5C 284.5,249.167 284.5,240.833 284.5,232.5 Z"/></g>
<g><path style="opacity:1" fill="#fdd8a0" d="M 284.5,224.5 C 287.287,223.523 290.287,223.19 293.5,223.5C 293.83,243.34 293.497,263.007 292.5,282.5C 292.5,265.833 292.5,249.167 292.5,232.5C 292.5,229.833 292.5,227.167 292.5,224.5C 289.833,224.5 287.167,224.5 284.5,224.5 Z"/></g>
<g><path style="opacity:1" fill="#fdef46" d="M 309.5,232.5 C 309.5,235.167 309.5,237.833 309.5,240.5C 306.833,240.5 304.167,240.5 301.5,240.5C 301.5,237.833 301.5,235.167 301.5,232.5C 304.167,232.5 306.833,232.5 309.5,232.5 Z"/></g>
<g><path style="opacity:1" fill="#fba43f" d="M 309.5,232.5 C 317.833,232.5 326.167,232.5 334.5,232.5C 334.5,235.167 334.5,237.833 334.5,240.5C 326.167,240.5 317.833,240.5 309.5,240.5C 309.5,237.833 309.5,235.167 309.5,232.5 Z"/></g>
<g><path style="opacity:1" fill="#fdef46" d="M 334.5,232.5 C 337.167,232.5 339.833,232.5 342.5,232.5C 342.5,235.167 342.5,237.833 342.5,240.5C 339.833,240.5 337.167,240.5 334.5,240.5C 334.5,237.833 334.5,235.167 334.5,232.5 Z"/></g>
<g><path style="opacity:1" fill="#fdef46" d="M 359.5,232.5 C 359.5,235.167 359.5,237.833 359.5,240.5C 356.833,240.5 354.167,240.5 351.5,240.5C 351.5,237.833 351.5,235.167 351.5,232.5C 354.167,232.5 356.833,232.5 359.5,232.5 Z"/></g>
<g><path style="opacity:1" fill="#fca640" d="M 359.5,232.5 C 365.167,232.5 370.833,232.5 376.5,232.5C 376.5,235.167 376.5,237.833 376.5,240.5C 370.833,240.5 365.167,240.5 359.5,240.5C 359.5,237.833 359.5,235.167 359.5,232.5 Z"/></g>
<g><path style="opacity:1" fill="#fdef46" d="M 376.5,232.5 C 379.167,232.5 381.833,232.5 384.5,232.5C 384.5,235.167 384.5,237.833 384.5,240.5C 381.833,240.5 379.167,240.5 376.5,240.5C 376.5,237.833 376.5,235.167 376.5,232.5 Z"/></g>
<g><path style="opacity:1" fill="#fdef46" d="M 268.5,240.5 C 271.167,240.5 273.833,240.5 276.5,240.5C 276.5,243.167 276.5,245.833 276.5,248.5C 276.5,245.833 276.5,243.167 276.5,240.5C 273.833,240.5 271.167,240.5 268.5,240.5 Z"/></g>
<g><path style="opacity:1" fill="#fba43f" d="M 301.5,240.5 C 304.167,240.5 306.833,240.5 309.5,240.5C 309.5,248.833 309.5,257.167 309.5,265.5C 309.5,268.167 309.5,270.833 309.5,273.5C 306.833,273.5 304.167,273.5 301.5,273.5C 301.5,262.5 301.5,251.5 301.5,240.5 Z"/></g>
<g><path style="opacity:1" fill="#fefffe" d="M 309.5,240.5 C 317.833,240.5 326.167,240.5 334.5,240.5C 334.5,248.833 334.5,257.167 334.5,265.5C 326.167,265.5 317.833,265.5 309.5,265.5C 309.5,257.167 309.5,248.833 309.5,240.5 Z"/></g>
<g><path style="opacity:1" fill="#fba43f" d="M 334.5,240.5 C 337.167,240.5 339.833,240.5 342.5,240.5C 342.5,251.5 342.5,262.5 342.5,273.5C 339.833,273.5 337.167,273.5 334.5,273.5C 334.5,270.833 334.5,268.167 334.5,265.5C 334.5,257.167 334.5,248.833 334.5,240.5 Z"/></g>
<g><path style="opacity:1" fill="#fca440" d="M 351.5,240.5 C 354.167,240.5 356.833,240.5 359.5,240.5C 359.194,243.385 359.527,246.052 360.5,248.5C 360.5,251.5 360.5,254.5 360.5,257.5C 365.833,257.5 371.167,257.5 376.5,257.5C 376.5,260.167 376.5,262.833 376.5,265.5C 370.833,265.5 365.167,265.5 359.5,265.5C 359.5,271.167 359.5,276.833 359.5,282.5C 356.833,282.5 354.167,282.5 351.5,282.5C 351.5,268.5 351.5,254.5 351.5,240.5 Z"/></g>
<g><path style="opacity:1" fill="#fffcf9" d="M 359.5,240.5 C 365.167,240.5 370.833,240.5 376.5,240.5C 376.5,243.167 376.5,245.833 376.5,248.5C 371.167,248.5 365.833,248.5 360.5,248.5C 359.527,246.052 359.194,243.385 359.5,240.5 Z"/></g>
<g><path style="opacity:1" fill="#fba43f" d="M 376.5,240.5 C 379.167,240.5 381.833,240.5 384.5,240.5C 384.5,246.167 384.5,251.833 384.5,257.5C 381.833,257.5 379.167,257.5 376.5,257.5C 376.5,254.5 376.5,251.5 376.5,248.5C 376.5,245.833 376.5,243.167 376.5,240.5 Z"/></g>
<g><path style="opacity:1" fill="#fdef46" d="M 209.5,249.5 C 212.167,249.5 214.833,249.5 217.5,249.5C 217.5,252.167 217.5,254.833 217.5,257.5C 214.833,257.5 212.167,257.5 209.5,257.5C 209.5,254.833 209.5,252.167 209.5,249.5 Z"/></g>
<g><path style="opacity:1" fill="#fdef46" d="M 234.5,249.5 C 234.5,252.167 234.5,254.833 234.5,257.5C 231.833,257.5 229.167,257.5 226.5,257.5C 226.5,254.833 226.5,252.167 226.5,249.5C 229.167,249.5 231.833,249.5 234.5,249.5 Z"/></g>
<g><path style="opacity:1" fill="#feef52" d="M 360.5,248.5 C 365.833,248.5 371.167,248.5 376.5,248.5C 376.5,251.5 376.5,254.5 376.5,257.5C 371.167,257.5 365.833,257.5 360.5,257.5C 360.5,254.5 360.5,251.5 360.5,248.5 Z"/></g>
<g><path style="opacity:1" fill="#fdef46" d="M 101.5,257.5 C 120.833,257.5 140.167,257.5 159.5,257.5C 159.5,260.167 159.5,262.833 159.5,265.5C 140.167,265.5 120.833,265.5 101.5,265.5C 101.5,262.833 101.5,260.167 101.5,257.5 Z"/></g>
<g><path style="opacity:1" fill="#fba43f" d="M 209.5,257.5 C 212.167,257.5 214.833,257.5 217.5,257.5C 217.5,262.833 217.5,268.167 217.5,273.5C 214.833,273.5 212.167,273.5 209.5,273.5C 209.5,268.167 209.5,262.833 209.5,257.5 Z"/></g>
<g><path style="opacity:1" fill="#fba43f" d="M 226.5,257.5 C 229.167,257.5 231.833,257.5 234.5,257.5C 234.5,262.833 234.5,268.167 234.5,273.5C 231.833,273.5 229.167,273.5 226.5,273.5C 226.5,268.167 226.5,262.833 226.5,257.5 Z"/></g>
<g><path style="opacity:1" fill="#fdef46" d="M 276.5,257.5 C 279.167,257.5 281.833,257.5 284.5,257.5C 284.5,260.167 284.5,262.833 284.5,265.5C 281.833,265.5 279.167,265.5 276.5,265.5C 276.5,262.833 276.5,260.167 276.5,257.5 Z"/></g>
<g><path style="opacity:1" fill="#fba43f" d="M 101.5,265.5 C 120.833,265.5 140.167,265.5 159.5,265.5C 159.5,268.167 159.5,270.833 159.5,273.5C 140.167,273.5 120.833,273.5 101.5,273.5C 101.5,270.833 101.5,268.167 101.5,265.5 Z"/></g>
<g><path style="opacity:1" fill="#ffdb77" d="M 209.5,249.5 C 209.5,249.167 209.5,248.833 209.5,248.5C 212.5,248.5 215.5,248.5 218.5,248.5C 218.5,254.167 218.5,259.833 218.5,265.5C 218.5,268.167 218.5,270.833 218.5,273.5C 220.833,273.5 223.167,273.5 225.5,273.5C 225.5,270.833 225.5,268.167 225.5,265.5C 225.5,259.833 225.5,254.167 225.5,248.5C 228.5,248.5 231.5,248.5 234.5,248.5C 234.5,248.833 234.5,249.167 234.5,249.5C 231.833,249.5 229.167,249.5 226.5,249.5C 226.5,252.167 226.5,254.833 226.5,257.5C 226.5,262.833 226.5,268.167 226.5,273.5C 226.5,274.167 226.167,274.5 225.5,274.5C 223.167,274.5 220.833,274.5 218.5,274.5C 217.833,274.5 217.5,274.167 217.5,273.5C 217.5,268.167 217.5,262.833 217.5,257.5C 217.5,254.833 217.5,252.167 217.5,249.5C 214.833,249.5 212.167,249.5 209.5,249.5 Z"/></g>
<g><path style="opacity:1" fill="#fdef46" d="M 218.5,265.5 C 220.833,265.5 223.167,265.5 225.5,265.5C 225.5,268.167 225.5,270.833 225.5,273.5C 223.167,273.5 220.833,273.5 218.5,273.5C 218.5,270.833 218.5,268.167 218.5,265.5 Z"/></g>
<g><path style="opacity:1" fill="#fdef46" d="M 309.5,265.5 C 317.833,265.5 326.167,265.5 334.5,265.5C 334.5,268.167 334.5,270.833 334.5,273.5C 326.167,273.5 317.833,273.5 309.5,273.5C 309.5,270.833 309.5,268.167 309.5,265.5 Z"/></g>
<g><path style="opacity:1" fill="#fba43f" d="M 218.5,274.5 C 220.833,274.5 223.167,274.5 225.5,274.5C 225.5,277.167 225.5,279.833 225.5,282.5C 223.167,282.5 220.833,282.5 218.5,282.5C 218.5,279.833 218.5,277.167 218.5,274.5 Z"/></g>
<g><path style="opacity:1" fill="#fca740" d="M 309.5,273.5 C 317.833,273.5 326.167,273.5 334.5,273.5C 334.5,276.5 334.5,279.5 334.5,282.5C 326.167,282.5 317.833,282.5 309.5,282.5C 309.5,279.5 309.5,276.5 309.5,273.5 Z"/></g>
<g><path style="opacity:1" fill="#fc962b" d="M 92.5,290.5 C 89.8333,290.5 87.1667,290.5 84.5,290.5C 84.5,287.833 84.5,285.167 84.5,282.5C 87.1667,282.5 89.8333,282.5 92.5,282.5C 92.5,285.167 92.5,287.833 92.5,290.5 Z"/></g>
<g><path style="opacity:1" fill="#fc962b" d="M 167.5,282.5 C 167.5,285.167 167.5,287.833 167.5,290.5C 164.833,290.5 162.167,290.5 159.5,290.5C 159.5,287.833 159.5,285.167 159.5,282.5C 162.167,282.5 164.833,282.5 167.5,282.5 Z"/></g>
<g><path style="opacity:1" fill="#fc962b" d="M 192.5,282.5 C 195.167,282.5 197.833,282.5 200.5,282.5C 200.5,285.167 200.5,287.833 200.5,290.5C 197.833,290.5 195.167,290.5 192.5,290.5C 192.5,287.833 192.5,285.167 192.5,282.5 Z"/></g>
<g><path style="opacity:1" fill="#fc962b" d="M 393.5,282.5 C 393.5,285.167 393.5,287.833 393.5,290.5C 390.833,290.5 388.167,290.5 385.5,290.5C 385.5,287.833 385.5,285.167 385.5,282.5C 388.167,282.5 390.833,282.5 393.5,282.5 Z"/></g>
<g><path style="opacity:1" fill="#fc962b" d="M 92.5,290.5 C 114.833,290.5 137.167,290.5 159.5,290.5C 159.5,293.167 159.5,295.833 159.5,298.5C 137.167,298.5 114.833,298.5 92.5,298.5C 92.5,295.833 92.5,293.167 92.5,290.5 Z"/></g>
<g><path style="opacity:1" fill="#fc962b" d="M 384.5,298.5 C 323.5,298.5 262.5,298.5 201.5,298.5C 201.5,295.833 201.5,293.167 201.5,290.5C 262.5,290.5 323.5,290.5 384.5,290.5C 384.5,293.167 384.5,295.833 384.5,298.5 Z"/></g>
</svg>
